<?xml version="1.0" encoding="iso-8859-1"?>
<!-- Generator: Adobe Illustrator 16.0.0, SVG Export Plug-In . SVG Version: 6.00 Build 0)  -->
<!DOCTYPE svg PUBLIC "-//W3C//DTD SVG 1.1//EN" "http://www.w3.org/Graphics/SVG/1.1/DTD/svg11.dtd">
<svg version="1.1" id="Layer_1" xmlns="http://www.w3.org/2000/svg" xmlns:xlink="http://www.w3.org/1999/xlink" x="0px" y="0px"
	 width="220px" height="222.867px" viewBox="0 0 220 222.867" style="enable-background:new 0 0 220 222.867;" xml:space="preserve"
	>
<rect x="10626.558" y="-6523.282" style="fill:#FFFFFF;stroke:#231F20;stroke-width:1.2524;stroke-miterlimit:10;" width="3061.416" height="4535.434"/>
<path d="M10626.556-6523.282v4535.434h3061.422v-4535.434H10626.556z M12304.716-5965.564
	c53.509-61.218,122.434-113.307,205.103-154.592c84.177-39.837,162.212-62.781,235.757-65.853
	c1.506,19.903,2.996,38.272,2.996,58.175c0,145.378-53.522,281.72-159.064,407.224
	c-128.723,150.017-283.301,235.684-450.147,221.922c-1.566-16.803-3.056-35.141-3.056-55.074
	C12136.304-5693.028,12197.521-5843.13,12304.716-5965.564z M13310.374-3920.285c-44.236,100.905-96.27,194.337-156.068,281.658
	c-82.67,117.798-150.102,198.977-202.121,243.391c-79.539,73.383-166.832,111.654-258.627,113.309
	c-65.779,0-145.467-18.397-238.9-56.669c-93.287-38.271-179.104-56.64-257.137-56.64c-82.671,0-169.905,18.368-264.83,56.64
	c-94.938,38.271-169.917,58.175-228.063,59.65c-88.8,3.133-176.106-35.141-264.918-116.29
	c-56.581-49.048-127.068-133.21-211.231-252.661c-90.305-126.924-165.34-274.042-223.501-442.366
	c-62.796-182.086-93.359-358.204-93.359-528.181c0-194.342,42.833-362.813,127.067-503.644
	c65.779-113.247,154.579-202.046,264.831-267.899c110.192-65.794,229.628-99.43,358.203-100.993
	c70.416,0,162.284,21.44,277.099,64.286c114.814,42.822,188.286,64.289,220.43,64.289c24.51,0,105.542-26.016,243.392-76.542
	c130.051-47.484,240.376-65.854,330.682-58.177c244.881,19.904,428.604,116.38,551.051,289.369
	c-218.863,133.182-327.551,318.428-324.406,557.182c1.492,185.214,68.761,339.95,201.959,462.386
	c58.16,58.146,123.939,100.906,198.99,133.213C13344.173-4007.579,13327.279-3963.196,13310.374-3920.285z"/>
<text transform="matrix(1 0 0 1 11796.0195 -2783.9355)"><tspan x="0" y="0" style="fill:#FFFFFF; font-family:'Arial-BoldMT'; font-size:400;">Mac</tspan><tspan x="-116.65" y="240" style="fill:#FFFFFF; font-family:'ArialMT'; font-size:200;">Now faster </tspan><tspan x="-255.713" y="480" style="fill:#FFFFFF; font-family:'ArialMT'; font-size:200;">across the line</tspan></text>
<rect x="4503.724" y="-6523.282" style="fill:#FFFFFF;stroke:#231F20;stroke-width:1.2524;stroke-miterlimit:10;" width="3061.417" height="4535.434"/>
<rect x="1442.309" y="-6523.282" style="fill:#FFFFFF;stroke:#231F20;stroke-width:1.3357;stroke-miterlimit:10;" width="3061.417" height="5159.055"/>
<rect x="1442.306" y="2760.772" style="fill:#FFFFFF;stroke:#231F20;stroke-width:1.3357;stroke-miterlimit:10;" width="3061.417" height="5159.057"/>
<g id="Mac_1_">
	<g id="Apple_1_">
		<path style="stroke:#000000;stroke-width:14.4116;stroke-miterlimit:10;" d="M7232.988-4057.859
			c-16.746,47.431-33.637,91.85-50.554,134.783c-44.274,100.984-96.347,194.486-156.188,281.876
			c-82.729,117.887-150.228,199.126-202.271,243.57c-79.603,73.437-166.975,111.737-258.82,113.396
			c-65.837,0-145.578-18.411-239.086-56.712c-93.363-38.302-179.244-56.683-257.322-56.683c-82.73,0-170.042,18.381-265.042,56.683
			c-94.997,38.301-170.04,58.218-228.223,59.694c-88.861,3.135-176.259-35.167-265.121-116.377
			c-56.634-49.084-127.173-133.306-211.391-252.843c-90.381-127.024-165.449-274.256-223.657-442.701
			c-62.855-182.223-93.427-358.475-93.427-528.575c0-194.487,42.844-363.084,127.145-504.021
			c65.837-113.332,154.7-202.195,265.042-268.102c110.279-65.84,229.795-99.502,358.455-101.065
			c70.482,0,162.414,21.459,277.313,64.335c114.897,42.848,188.419,64.334,220.623,64.334c24.517,0,105.606-26.033,243.562-76.602
			c130.123-47.517,240.551-65.898,330.932-58.217c245.052,19.919,428.914,116.467,551.438,289.584
			c-219.013,133.286-327.773,318.668-324.625,557.602c1.494,185.349,68.793,340.2,202.102,462.728
			C7092.055-4132.98,7157.893-4090.189,7232.988-4057.859z M6617.203-6190.48c1.522,19.916,3.012,38.293,3.012,58.214
			c0,145.484-53.566,281.928-159.178,407.529c-128.828,150.129-283.527,235.858-450.5,222.083
			c-1.58-16.814-3.068-35.163-3.068-55.112c0-139.366,61.279-289.584,168.547-412.109
			c53.564-61.265,122.527-113.389,205.252-154.711C6465.515-6164.446,6543.623-6187.411,6617.203-6190.48z"/>
	</g>
</g>
<rect x="-1619.112" y="-6523.282" style="fill:#FFFFFF;stroke:#231F20;stroke-width:1.0584;stroke-miterlimit:10;" width="3061.417" height="3239.208"/>
<image style="overflow:visible;" width="588" height="940" xlink:href="../Downloads/airpods_large.png"  transform="matrix(2.383 0 0 2.383 2803.3525 -5483.4834)">
</image>
<image style="overflow:visible;" width="1160" height="333" xlink:href="../Downloads/hero_alt2_large.jpg"  transform="matrix(1.585 0 0 1.585 -976.4326 -4211.3467)">
</image>
<rect x="7565.142" y="-6523.282" style="stroke:#000000;stroke-width:1.2524;stroke-miterlimit:10;" width="3061.418" height="4535.434"/>
<path d="M1442.305-6523.282v4535.434h3061.42v-4535.434H1442.305z M3120.465-5965.564
	c53.509-61.218,122.434-113.307,205.104-154.592c84.176-39.837,162.21-62.781,235.756-65.853
	c1.506,19.903,2.997,38.272,2.997,58.175c0,145.378-53.523,281.72-159.065,407.224
	c-128.723,150.017-283.301,235.684-450.147,221.922c-1.565-16.803-3.056-35.141-3.056-55.074
	C2952.054-5693.029,3013.271-5843.13,3120.465-5965.564z M4126.124-3920.285c-44.237,100.905-96.27,194.337-156.068,281.658
	c-82.67,117.797-150.103,198.977-202.121,243.391c-79.541,73.383-166.832,111.654-258.627,113.309
	c-65.779,0-145.467-18.397-238.901-56.669c-93.287-38.271-179.103-56.64-257.136-56.64c-82.67,0-169.904,18.369-264.83,56.64
	c-94.94,38.271-169.917,58.175-228.063,59.65c-88.798,3.133-176.105-35.14-264.917-116.29
	c-56.58-49.048-127.069-133.209-211.23-252.661c-90.304-126.925-165.341-274.042-223.501-442.366
	c-62.797-182.086-93.36-358.203-93.36-528.181c0-194.341,42.833-362.813,127.068-503.644
	c65.78-113.247,154.578-202.046,264.83-267.899c110.192-65.794,229.628-99.43,358.204-100.993
	c70.416,0,162.285,21.44,277.099,64.287c114.814,42.82,188.285,64.288,220.43,64.288c24.51,0,105.541-26.015,243.39-76.542
	c130.051-47.484,240.376-65.854,330.681-58.176c244.881,19.904,428.604,116.379,551.052,289.369
	c-218.864,133.182-327.55,318.428-324.406,557.182c1.492,185.214,68.762,339.95,201.958,462.386
	c58.161,58.146,123.939,100.906,198.99,133.213C4159.922-4007.579,4143.03-3963.196,4126.124-3920.285z"/>
<image style="overflow:visible;" width="625" height="364" xlink:href="../Downloads/gallery_hw_large.png"  transform="matrix(3.5944 0 0 3.5944 7972.4277 -4909.8008)">
</image>
<image style="overflow:visible;" width="479" height="300" xlink:href="../Downloads/pro_finalcut_large.jpg"  transform="matrix(3.64 0 0 3.64 8224.2305 -4843.4863)">
</image>
<path style="fill:#FFFFFF;" d="M7565.139-6523.282v4535.434h3061.421v-4535.434H7565.139z M9243.299-5965.564
	c53.509-61.218,122.434-113.307,205.103-154.592c84.177-39.837,162.212-62.781,235.757-65.853
	c1.505,19.903,2.994,38.272,2.994,58.175c0,145.378-53.521,281.72-159.063,407.224
	c-128.724,150.017-283.301,235.684-450.146,221.922c-1.566-16.803-3.059-35.141-3.059-55.074
	C9074.885-5693.029,9136.102-5843.13,9243.299-5965.564z M10248.957-3920.285c-44.238,100.905-96.27,194.337-156.069,281.658
	c-82.669,117.797-150.103,198.977-202.119,243.391c-79.54,73.383-166.833,111.654-258.627,113.309
	c-65.78,0-145.468-18.397-238.901-56.669c-93.289-38.271-179.105-56.64-257.139-56.64c-82.668,0-169.903,18.369-264.828,56.64
	c-94.939,38.271-169.917,58.175-228.063,59.65c-88.799,3.133-176.105-35.14-264.918-116.29
	c-56.58-49.048-127.068-133.209-211.23-252.661c-90.305-126.925-165.341-274.042-223.501-442.366
	c-62.797-182.086-93.36-358.203-93.36-528.181c0-194.341,42.833-362.813,127.067-503.644
	c65.779-113.247,154.579-202.046,264.831-267.899c110.191-65.794,229.628-99.43,358.201-100.993
	c70.416,0,162.287,21.44,277.101,64.287c114.814,42.82,188.284,64.288,220.43,64.288c24.511,0,105.542-26.015,243.392-76.542
	c130.051-47.484,240.375-65.854,330.68-58.176c244.883,19.904,428.605,116.379,551.051,289.369
	c-218.861,133.182-327.549,318.428-324.405,557.182c1.492,185.214,68.762,339.95,201.96,462.386
	c58.16,58.146,123.938,100.906,198.99,133.213C10282.756-4007.579,10265.862-3963.196,10248.957-3920.285z"/>
<path d="M-1619.113-6523.282v4535.434h3061.42v-4535.434H-1619.113z M59.047-5965.564
	c53.509-61.218,122.434-113.307,205.104-154.592c84.176-39.837,162.21-62.781,235.756-65.853
	c1.506,19.903,2.997,38.272,2.997,58.175c0,145.378-53.523,281.72-159.065,407.224
	c-128.723,150.017-283.301,235.684-450.147,221.922c-1.565-16.803-3.056-35.141-3.056-55.074
	C-109.365-5693.029-48.148-5843.13,59.047-5965.564z M1064.706-3920.285c-44.237,100.905-96.27,194.337-156.068,281.658
	c-82.67,117.797-150.103,198.977-202.121,243.391c-79.541,73.383-166.832,111.654-258.627,113.309
	c-65.779,0-145.467-18.397-238.901-56.669c-93.287-38.271-179.103-56.64-257.136-56.64c-82.67,0-169.904,18.369-264.83,56.64
	c-94.941,38.271-169.917,58.175-228.063,59.65c-88.798,3.133-176.105-35.14-264.917-116.29
	c-56.58-49.048-127.069-133.209-211.231-252.661c-90.304-126.925-165.34-274.042-223.5-442.366
	c-62.797-182.086-93.36-358.203-93.36-528.181c0-194.341,42.833-362.813,127.068-503.644
	c65.78-113.247,154.578-202.046,264.83-267.899c110.192-65.794,229.628-99.43,358.204-100.993
	c70.416,0,162.285,21.44,277.099,64.287c114.814,42.82,188.285,64.288,220.43,64.288c24.51,0,105.541-26.015,243.39-76.542
	c130.051-47.484,240.376-65.854,330.681-58.176c244.881,19.904,428.604,116.379,551.052,289.369
	c-218.864,133.182-327.55,318.428-324.406,557.182c1.492,185.214,68.762,339.95,201.958,462.386
	c58.16,58.146,123.939,100.906,198.99,133.213C1098.503-4007.579,1081.612-3963.196,1064.706-3920.285z"/>
<g id="Mac_2_">
	<g id="Apple_3_">
		<path style="stroke:#000000;stroke-miterlimit:10;" d="M3053.425-6632.147c-1.162,3.291-2.335,6.373-3.509,9.353
			c-3.072,7.006-6.686,13.495-10.837,19.558c-5.741,8.18-10.424,13.818-14.036,16.901c-5.522,5.096-11.585,7.753-17.959,7.868
			c-4.567,0-10.102-1.278-16.59-3.936c-6.478-2.657-12.437-3.933-17.855-3.933c-5.74,0-11.798,1.275-18.39,3.933
			c-6.593,2.658-11.8,4.04-15.837,4.142c-6.166,0.218-12.229-2.439-18.396-8.075c-3.93-3.406-8.825-9.25-14.669-17.545
			c-6.271-8.813-11.48-19.03-15.52-30.718c-4.361-12.645-6.482-24.874-6.482-36.677c0-13.496,2.974-25.194,8.822-34.973
			c4.568-7.864,10.734-14.03,18.391-18.604c7.652-4.568,15.946-6.904,24.874-7.013c4.89,0,11.269,1.489,19.241,4.464
			c7.974,2.974,13.075,4.464,15.309,4.464c1.701,0,7.328-1.806,16.9-5.315c9.03-3.297,16.691-4.572,22.963-4.04
			c17.004,1.382,29.763,8.081,38.264,20.094c-15.196,9.25-22.744,22.112-22.525,38.691c0.104,12.861,4.774,23.605,14.024,32.107
			C3043.646-6637.36,3048.213-6634.39,3053.425-6632.147z M3010.697-6780.127c0.104,1.382,0.208,2.658,0.208,4.04
			c0,10.095-3.717,19.563-11.045,28.278c-8.939,10.417-19.673,16.366-31.26,15.411c-0.108-1.167-0.212-2.441-0.212-3.825
			c0-9.67,4.251-20.094,11.695-28.595c3.716-4.252,8.501-7.869,14.242-10.736C3000.171-6778.321,3005.59-6779.914,3010.697-6780.127
			z"/>
	</g>
</g>
<g id="Mac_3_">
	<g id="Apple_2_">
		<path style="stroke:#000000;stroke-miterlimit:10;" d="M194.237,168.967c-1.162,3.291-2.335,6.373-3.509,9.353
			c-3.072,7.006-6.686,13.495-10.837,19.558c-5.741,8.18-10.424,13.818-14.036,16.901c-5.522,5.096-11.585,7.753-17.959,7.868
			c-4.567,0-10.102-1.278-16.59-3.936c-6.478-2.657-12.437-3.933-17.855-3.933c-5.74,0-11.798,1.275-18.39,3.933
			c-6.593,2.658-11.8,4.04-15.837,4.142c-6.166,0.218-12.229-2.439-18.396-8.075c-3.93-3.406-8.825-9.25-14.669-17.545
			c-6.271-8.813-11.48-19.03-15.52-30.718c-4.361-12.645-6.482-24.874-6.482-36.677c0-13.496,2.974-25.194,8.822-34.973
			c4.568-7.864,10.734-14.03,18.391-18.604c7.652-4.568,15.946-6.904,24.874-7.013c4.89,0,11.269,1.489,19.241,4.464
			c7.974,2.974,13.075,4.464,15.309,4.464c1.701,0,7.328-1.806,16.9-5.315c9.03-3.297,16.691-4.572,22.963-4.04
			c17.004,1.382,29.763,8.081,38.264,20.094c-15.196,9.25-22.744,22.112-22.525,38.691c0.104,12.861,4.774,23.605,14.024,32.107
			C184.457,163.754,189.025,166.725,194.237,168.967z M151.508,20.987c0.104,1.382,0.208,2.658,0.208,4.04
			c0,10.095-3.717,19.563-11.045,28.278c-8.939,10.417-19.673,16.366-31.26,15.411c-0.108-1.167-0.212-2.441-0.212-3.825
			c0-9.67,4.251-20.094,11.695-28.595c3.716-4.252,8.501-7.869,14.242-10.736C140.982,22.793,146.401,21.201,151.508,20.987z"/>
	</g>
</g>
<text transform="matrix(1 0 0 1 5463.1685 -4735.7773)"><tspan x="0" y="0" style="fill:#FFFFFF; font-family:'Arial-BoldMT'; font-size:400;">iOS 11</tspan><tspan x="-416.992" y="240" style="fill:#FFFFFF; font-family:'ArialMT'; font-size:200;">A giant step for iPho</tspan><tspan x="1384.082" y="240" style="fill:#231F20; font-family:'ArialMT'; font-size:200;">ne.</tspan><tspan x="-639.258" y="480" style="fill:#FFFFFF; font-family:'ArialMT'; font-size:200;">A monumental leap for </tspan><tspan x="1428.515" y="480" style="fill:#231F20; font-family:'ArialMT'; font-size:200;">iPad.</tspan></text>
<text transform="matrix(1 0 0 1 -913.1689 -4847.6777)"><tspan x="0" y="0" style="font-family:'Arial-BoldMT'; font-size:400;">ipad Pro</tspan><tspan x="-245.605" y="240" style="font-family:'ArialMT'; font-size:200;">anything you can do,</tspan><tspan x="-0.879" y="480" style="font-family:'ArialMT'; font-size:200;">you can do better.</tspan></text>
<text transform="matrix(1 0 0 1 2314.4941 -1547.6782)" style="font-family:'Arial-BoldMT'; font-size:300;">Welcome</text>
<g>
	<defs>
		<rect id="SVGID_1_" x="1442.309" y="6391.57" width="3061.417" height="2125.984"/>
	</defs>
	<clipPath id="SVGID_2_">
		<use xlink:href="#SVGID_1_"  style="overflow:visible;"/>
	</clipPath>
	<g transform="matrix(1 0 0 1 6.103516e-005 0)" style="clip-path:url(#SVGID_2_);">
		
			<image style="overflow:visible;" width="2560" height="1225" xlink:href="../Downloads/hero_activity_rings_large.jpg"  transform="matrix(1.7355 0 0 1.7355 751.6055 6391.6084)">
		</image>
	</g>
</g>
<image style="overflow:visible;" width="178" height="183" xlink:href="../Downloads/wwdc17_imac_pro_large.png"  transform="matrix(10.4239 0 0 10.4239 1672.2422 4483.5938)">
</image>
<text transform="matrix(1 0 0 1 3098.626 4581.3711)"><tspan x="0" y="0" style="fill:#231F20; font-family:'Arial-BoldMT'; font-size:300;">iMac Pro</tspan><tspan x="-327.441" y="240" style="fill:#231F20; font-family:'Arial-BoldMT'; font-size:200;">Power to the pro</tspan></text>
<text transform="matrix(1 0 0 1 2239.5703 6788.6719)"><tspan x="0" y="0" style="fill:#231F20; font-family:'Arial-BoldMT'; font-size:300;">whatchOS</tspan><tspan x="27.832" y="240" style="fill:#231F20; font-family:'Arial-BoldMT'; font-size:200;">More intuitive. </tspan><tspan x="-533.301" y="480" style="fill:#231F20; font-family:'Arial-BoldMT'; font-size:200;">More intelligent. More you.</tspan></text>
<text transform="matrix(1 0 0 1 9159.208 -2917.6782)"><tspan x="0" y="0" style="fill:#231F20; font-family:'Arial-BoldMT'; font-size:400;">macOS</tspan><tspan x="-755.469" y="350" style="fill:#231F20; font-family:'Arial-BoldMT'; font-size:400;">High Sierra</tspan><tspan x="-311.133" y="650" style="fill:#231F20; font-family:'ArialMT'; font-size:200;">Yor Mac. Elevated.</tspan></text>
<text transform="matrix(1 0 0 1 1957.0264 -4461.3965)"><tspan x="0" y="0" style="font-family:'ArialMT'; font-size:200;">Wireless.</tspan><tspan x="0" y="240" style="font-family:'ArialMT'; font-size:200;">Effortless.</tspan><tspan x="0" y="480" style="font-family:'ArialMT'; font-size:200;">Magical.</tspan><tspan x="0" y="600" style="font-family:'ArialMT'; font-size:100;">Learn more about AirPods</tspan></text>
<path d="M1800.749-6718.797c0,7.626-8.998,13.81-20.097,13.81h-243.271c-11.099,0-20.097-6.183-20.097-13.81v-0.727
	c0-7.627,8.998-13.811,20.097-13.811h243.271c11.099,0,20.097,6.184,20.097,13.811V-6718.797z"/>
<path d="M1800.749-6661.464c0,7.627-8.998,13.81-20.097,13.81h-243.271c-11.099,0-20.097-6.183-20.097-13.81v-0.727
	c0-7.627,8.998-13.81,20.097-13.81h243.271c11.099,0,20.097,6.183,20.097,13.81V-6661.464z"/>
<path d="M1800.749-6604.13c0,7.628-8.998,13.81-20.097,13.81h-243.271c-11.099,0-20.097-6.182-20.097-13.81v-0.727
	c0-7.627,8.998-13.81,20.097-13.81h243.271c11.099,0,20.097,6.183,20.097,13.81V-6604.13z"/>
<rect x="1442.308" y="-6806.747" style="fill:none;" width="3061.417" height="283.465"/>
<text transform="matrix(1 0 0 1 1784.4814 -4666.7344)" style="font-family:'Arial-BoldMT'; font-size:266.5804;">AirPods</text>
<image style="overflow:visible;" width="606" height="454" xlink:href="../Downloads/image_medium (2).jpg"  transform="matrix(2.3019 0 0 2.3019 5387.2822 -3828.9795)">
</image>
<image style="overflow:visible;" width="912" height="700" xlink:href="../Downloads/image_medium.png"  transform="matrix(2.4617 0 0 2.4617 4966.4795 -4127.9316)">
</image>
<image style="overflow:visible;" width="200" height="356" xlink:href="../Downloads/image_medium.jpg"  transform="matrix(2.1255 0 0 2.1255 5055.7051 -3982.6445)">
</image>
<g>
	<defs>
		<rect id="SVGID_3_" x="1442.307" y="-1364.228" width="3061.417" height="5159.999"/>
	</defs>
	<use xlink:href="#SVGID_3_"  style="overflow:visible;fill:#FFFFFF;"/>
	<clipPath id="SVGID_4_">
		<use xlink:href="#SVGID_3_"  style="overflow:visible;"/>
	</clipPath>
	<g style="clip-path:url(#SVGID_4_);">
		
			<image style="overflow:visible;" width="2560" height="2184" xlink:href="../Downloads/home_large.jpg"  transform="matrix(1.4294 0 0 1.4297 1176.7188 -1362.7695)">
		</image>
	</g>
</g>
<image style="overflow:visible;" width="640" height="268" xlink:href="../Downloads/shot_on_iphone_medium (1).jpg"  transform="matrix(4.773 0 0 4.773 1445.6543 1804.8281)">
</image>
<path d="M4503.728,2208.844V-1362.81h-3061.42v3571.653H4503.728z M3120.468-1016.798c53.51-61.218,122.434-113.308,205.104-154.592
	c84.177-39.837,162.211-62.781,235.757-65.854c1.506,19.903,2.997,38.272,2.997,58.175c0,145.379-53.523,281.721-159.066,407.225
	c-128.723,150.017-283.301,235.684-450.146,221.922c-1.565-16.803-3.057-35.141-3.057-55.074
	C2952.056-744.262,3013.273-894.364,3120.468-1016.798z M4126.126,1028.481c-44.236,100.905-96.27,194.337-156.068,281.657
	c-82.67,117.799-150.102,198.977-202.12,243.391c-79.54,73.383-166.832,111.654-258.628,113.309
	c-65.779,0-145.467-18.396-238.9-56.668c-93.287-38.271-179.104-56.641-257.137-56.641c-82.67,0-169.904,18.369-264.829,56.641
	c-94.94,38.271-169.917,58.174-228.063,59.65c-88.798,3.133-176.105-35.141-264.917-116.291
	c-56.58-49.047-127.069-133.209-211.23-252.66c-90.304-126.924-165.341-274.042-223.501-442.367
	c-62.797-182.086-93.36-358.204-93.36-528.181c0-194.342,42.833-362.813,127.068-503.644
	c65.78-113.247,154.578-202.046,264.829-267.899c110.192-65.794,229.629-99.43,358.204-100.993
	c70.416,0,162.285,21.44,277.099,64.286c114.814,42.822,188.285,64.289,220.43,64.289c24.51,0,105.541-26.016,243.391-76.542
	c130.051-47.484,240.377-65.854,330.682-58.177c244.881,19.904,428.604,116.38,551.051,289.369
	c-218.863,133.182-327.55,318.428-324.405,557.182c1.491,185.214,68.763,339.95,201.958,462.386
	c58.161,58.146,123.939,100.906,198.99,133.213C4159.925,941.187,4143.033,985.57,4126.126,1028.481z"/>
<text transform="matrix(1 0 0 1 2400.8965 2491.7979)"><tspan x="0" y="0" style="fill:#FFFFFF; font-family:'Arial-BoldMT'; font-size:200;">How to shot</tspan><tspan x="33.203" y="240" style="fill:#FFFFFF; font-family:'Arial-BoldMT'; font-size:200;">on iPhone7</tspan></text>
<text transform="matrix(1 0 0 1 2172.3389 1335.252)" style="fill:#231F20; font-family:'Arial-BoldMT'; font-size:350;">HomePod.</text>
<image style="overflow:visible;" width="1897" height="883" xlink:href="F:\cjswo2017\2017 &#xC774;&#xC820;\css\&#xBC18;&#xC751;&#xD615;&#xC6F9;\&#xC560;&#xD50C;\images\iphone7.jpg"  transform="matrix(1.6138 0 0 1.6138 1442.3125 2837.1924)">
</image>
<image style="overflow:visible;" width="242" height="198" xlink:href="../Downloads/buystrip_hero_large.png"  transform="matrix(-11.432 0 0 11.432 13549.5859 -5826.7891)">
</image>
<g>
	
		<rect x="1442.309" y="8517.555" style="stroke:#231F20;stroke-width:1.3357;stroke-miterlimit:10;" width="3061.415" height="794.445"/>
	<text transform="matrix(1 0 0 1 1848.668 8672)"><tspan x="0" y="0" style="fill:#A7A9AC; font-family:'MyriadPro-Regular'; font-size:150;">Shop and Learn </tspan><tspan x="0" y="190" style="fill:#A7A9AC; font-family:'MyriadPro-Regular'; font-size:150;">Apple Store </tspan><tspan x="0" y="380" style="fill:#A7A9AC; font-family:'MyriadPro-Regular'; font-size:150;">For Education </tspan><tspan x="0" y="570" style="fill:#A7A9AC; font-family:'MyriadPro-Regular'; font-size:150;">For Business </tspan></text>
	<text transform="matrix(1 0 0 1 3111.668 8672)"><tspan x="0" y="0" style="fill:#A7A9AC; font-family:'MyriadPro-Regular'; font-size:150;">Account   </tspan><tspan x="0" y="190" style="fill:#A7A9AC; font-family:'MyriadPro-Regular'; font-size:150;">Apple Values </tspan><tspan x="0" y="380" style="fill:#A7A9AC; font-family:'MyriadPro-Regular'; font-size:150;">About Apple</tspan><tspan x="0" y="570" style="fill:#A7A9AC; font-family:'MyriadPro-Regular'; font-size:150;">for the more...       </tspan></text>
</g>
<g>
	<g id="MSP_Bag_Empty_2_">
		<g id="MSP_Bag_Empty">
			<path style="fill:#231F20;" d="M4284.82-6743.384c-9.689,0-17.508,7.819-17.508,17.507v128.394
				c0,9.689,7.819,17.508,17.508,17.508h128.393c9.689,0,17.508-7.819,17.508-17.508v-128.394c0-9.688-7.819-17.507-17.508-17.507
				H4284.82z M4405.386-6603.743c30.213-19.375,13.662-122.134,13.662-122.134v128.394c0,3.267-2.57,5.835-5.835,5.835H4284.82
				C4284.82-6591.647,4379.886-6587.39,4405.386-6603.743z"/>
		</g>
		<g>
			<path style="fill:#231F20;" d="M4392.786-6731.712h-87.541v-5.836c0-25.211,22.757-40.852,43.77-40.852
				s43.771,15.641,43.771,40.852V-6731.712z M4317.505-6743.384h63.022c-3.146-14.59-17.736-23.344-31.511-23.344
				C4335.24-6766.728,4320.651-6757.974,4317.505-6743.384z"/>
		</g>
	</g>
</g>
</svg>
