<?xml version="1.0" encoding="iso-8859-1"?>
<!-- Generator: Adobe Illustrator 16.0.0, SVG Export Plug-In . SVG Version: 6.00 Build 0)  -->
<!DOCTYPE svg PUBLIC "-//W3C//DTD SVG 1.1//EN" "http://www.w3.org/Graphics/SVG/1.1/DTD/svg11.dtd">
<svg version="1.1" id="Layer_1" xmlns="http://www.w3.org/2000/svg" xmlns:xlink="http://www.w3.org/1999/xlink" x="0px" y="0px"
	 width="220px" height="222.867px" viewBox="0 0 220 222.867" style="enable-background:new 0 0 220 222.867;" xml:space="preserve"
	>
<g>
	<g id="MSP_Bag_Empty_1_">
		<g id="MSP_Bag_Empty_3_">
			<path d="M46.804,47.237c-9.689,0-17.508,7.819-17.508,17.507v128.394c0,9.689,7.819,17.508,17.508,17.508h128.393
				c9.689,0,17.508-7.819,17.508-17.508V64.744c0-9.688-7.819-17.507-17.508-17.507H46.804z M167.37,186.878
				c30.213-19.375,13.662-122.134,13.662-122.134v128.394c0,3.267-2.57,5.835-5.835,5.835H46.804
				C46.804,198.973,141.87,203.23,167.37,186.878z"/>
		</g>
		<g>
			<path d="M154.77,58.909H67.229v-5.836c0-25.211,22.757-40.852,43.77-40.852s43.771,15.641,43.771,40.852V58.909z M79.489,47.237
				h63.022c-3.146-14.59-17.736-23.344-31.511-23.344C97.224,23.893,82.635,32.647,79.489,47.237z"/>
		</g>
	</g>
</g>
</svg>
