<?xml version="1.0" encoding="iso-8859-1"?>
<!-- Generator: Adobe Illustrator 16.0.0, SVG Export Plug-In . SVG Version: 6.00 Build 0)  -->
<!DOCTYPE svg PUBLIC "-//W3C//DTD SVG 1.1//EN" "http://www.w3.org/Graphics/SVG/1.1/DTD/svg11.dtd">
<svg version="1.1" id="Layer_1" xmlns="http://www.w3.org/2000/svg" xmlns:xlink="http://www.w3.org/1999/xlink" x="0px" y="0px"
	 width="60px" height="75px" viewBox="0 0 60 75" style="enable-background:new 0 0 60 75;" xml:space="preserve">
<path style="fill-rule:evenodd;clip-rule:evenodd;fill:#55A6D6;" d="M43.91,36.026c-6.922,6.137-15.455,7.096-22.73,2.553
	c-7.003-4.373-9.798-12.575-7.237-21.228c-0.305,2.559,1.213,3.391,3.479,3.918c0.737-1.83-1.51-4.275,0.998-5.066
	c2.365-0.748,3.886-2.494,5.762-3.807c0.83-0.58,3.151-0.566,2.254-1.775c-0.761-1.025-1.13-3.543-3.535-2.889
	c4.976-4.129,10.401-3.377,15.657-0.986c5.121,2.33,9.136,5.871,9.447,12.117c-1.482-0.758-1.528-2.992-3.476-3.314
	c-1.348-0.225-2.519-2.361-3.954-0.799c-1.182,1.285-2.484,2.902-2.15,4.826c0.322,1.861,1.693,3.572,3.401,3.971
	c4.559,1.064,3.697,4.129,2.638,6.891C43.726,32.367,42.857,34.026,43.91,36.026z M24.903,40.079
	c1.409-4.055,2.815-6.104,4.904-7.854c1.322-1.105,3.246-3.061,1.193-4.918c-2.022-1.828-4.517-3.197-6.958-4.477
	c-1.192-0.625-2.809-1.498-4.096-0.09c-1.053,1.154-1.451,2.824-0.907,4.184C20.64,30.924,22.525,34.808,24.903,40.079z"/>
<path style="fill-rule:evenodd;clip-rule:evenodd;fill:#00A262;" d="M43.91,36.026c-1.053-2-0.185-3.659,0.555-5.589
	c1.06-2.762,1.921-5.826-2.638-6.891c-1.708-0.398-3.079-2.109-3.401-3.971c-0.334-1.924,0.969-3.541,2.15-4.826
	c1.436-1.563,2.606,0.574,3.954,0.799c1.947,0.322,1.993,2.557,3.476,3.314C48.536,25.037,49.558,31.328,43.91,36.026z"/>
<path style="fill-rule:evenodd;clip-rule:evenodd;fill:#00A262;" d="M22.902,7.732c2.405-0.654,2.774,1.863,3.535,2.889
	c0.896,1.209-1.424,1.195-2.254,1.775c-1.876,1.313-3.397,3.059-5.762,3.807c-2.507,0.791-0.261,3.236-0.998,5.066
	c-2.266-0.527-3.784-1.359-3.479-3.918c1.147-3.664,1.109-8.219,6.535-8.641c1.022,0.125,1.991,0.115,2.52-1.002L22.902,7.732z"/>
<path style="fill-rule:evenodd;clip-rule:evenodd;fill:#55A6D6;" d="M22.998,7.709c-0.529,1.117-1.498,1.127-2.52,1.002
	C21.128,7.9,21.907,7.414,22.998,7.709z"/>
<path style="fill-rule:evenodd;clip-rule:evenodd;fill:#00A262;" d="M24.903,40.079c-2.378-5.271-4.263-9.155-5.863-13.155
	c-0.544-1.359-0.146-3.029,0.907-4.184c1.287-1.408,2.904-0.535,4.096,0.09c2.44,1.279,4.936,2.648,6.958,4.477
	c2.053,1.857,0.129,3.813-1.193,4.918C27.718,33.976,26.312,36.024,24.903,40.079z"/>
</svg>
