<?xml version="1.0" encoding="iso-8859-1"?>
<!-- Generator: Adobe Illustrator 16.0.0, SVG Export Plug-In . SVG Version: 6.00 Build 0)  -->
<!DOCTYPE svg PUBLIC "-//W3C//DTD SVG 1.1//EN" "http://www.w3.org/Graphics/SVG/1.1/DTD/svg11.dtd">
<svg version="1.1" id="Layer_1" xmlns="http://www.w3.org/2000/svg" xmlns:xlink="http://www.w3.org/1999/xlink" x="0px" y="0px"
	 width="100px" height="100px" viewBox="0 0 100 100" style="enable-background:new 0 0 100 100;" xml:space="preserve">
<path style="fill-rule:evenodd;clip-rule:evenodd;fill:#B0B0B1;" d="M27.079,63.033c-6.453-9.507-4.621-23.277,4.23-31.814
	c8.484-8.185,22.269-9.752,31.085-3.536c-0.289,1.691,0.266,3.263,0.59,4.892c2.588,12.978-5.326,26.256-17.718,30.335
	C39.137,64.927,33.141,63.559,27.079,63.033z"/>
<path style="fill-rule:evenodd;clip-rule:evenodd;fill:#6B6C82;" d="M27.079,63.033c6.063,0.525,12.059,1.894,18.188-0.124
	c12.392-4.079,20.306-17.357,17.718-30.335c-0.324-1.629-0.879-3.2-0.59-4.892c14.07,5.853,18.25,26.175,8.043,39.121
	c-10.256,13.012-30.489,13.274-41.06,0.531C28.319,66.059,27.159,64.833,27.079,63.033z"/>
</svg>
