<?xml version="1.0" encoding="iso-8859-1"?>
<!-- Generator: Adobe Illustrator 16.0.0, SVG Export Plug-In . SVG Version: 6.00 Build 0)  -->
<!DOCTYPE svg PUBLIC "-//W3C//DTD SVG 1.1//EN" "http://www.w3.org/Graphics/SVG/1.1/DTD/svg11.dtd">
<svg version="1.1" id="Layer_1" xmlns="http://www.w3.org/2000/svg" xmlns:xlink="http://www.w3.org/1999/xlink" x="0px" y="0px"
	 width="120px" height="60px" viewBox="0 0 120 60" style="enable-background:new 0 0 120 60;" xml:space="preserve">
<g>
	<path style="fill-rule:evenodd;clip-rule:evenodd;fill:#8AFDFF;stroke:#9DEFFF;stroke-miterlimit:10;" d="M43.213,21.555
		c0-12.081,11.201-14,18-14c6.25,0,17.75,1.919,17.75,14H43.213z"/>
	<path style="fill-rule:evenodd;clip-rule:evenodd;fill:#3BBDFF;" d="M61.113,21.555c3.225,0,6.225-7,0.1-14
		c6.25,0,17.75,1.919,17.75,14H61.113z"/>
	<path style="fill-rule:evenodd;clip-rule:evenodd;fill:#626262;" d="M43.213,21.555c0,0-2.25,2.438-1,4.875h38
		c0,0,0.875-3.125-1.25-4.875H43.213z"/>
	<path style="fill-rule:evenodd;clip-rule:evenodd;fill:#7F6C5F;" d="M35.103,43.414c0,0,9.194,5.024,25.985,5.666
		c0,0,12.148,0.604,24.804-5.211L35.103,43.414z"/>
	<path style="fill-rule:evenodd;clip-rule:evenodd;fill:#3BBDFF;" d="M61.113,21.555"/>
	<path style="fill-rule:evenodd;clip-rule:evenodd;fill:#D3D5D9;" d="M104.789,34.679c-5.883-4.077-22.411-8.249-22.411-8.249
		h-21.29h-21.29c0,0-16.528,4.172-22.411,8.249s-5.883,4.077-5.883,4.077s15.968,6.006,49.583,6.006
		c41.74,0,49.584-6.006,49.584-6.006S110.672,38.756,104.789,34.679z"/>
	<path style="fill-rule:evenodd;clip-rule:evenodd;fill:#A2ADCD;" d="M61.088,26.43v18.332c41.791,1.908,49.584-6.006,49.584-6.006
		s0,0-5.883-4.077S82.378,26.43,82.378,26.43H61.088"/>
</g>
</svg>
